<svg xmlns="http://www.w3.org/2000/svg" width="1874.88" viewBox="0 0 1874.88 1125" height="1125" version="1.0"><g fill="#FFD425"><g><g><path d="M 111.023438 1.609375 L 131.941406 1.609375 L 140.792969 -0.804688 L 143.207031 -8.046875 L 144.011719 -14.480469 L 146.421875 -24.941406 L 148.03125 -36.203125 L 150.445312 -46.664062 L 153.664062 -65.972656 L 156.078125 -74.820312 L 156.078125 -80.453125 L 157.6875 -90.910156 L 159.296875 -102.175781 L 161.710938 -113.4375 L 161.710938 -119.875 L 164.929688 -130.332031 L 165.730469 -136.769531 L 168.144531 -148.835938 L 167.339844 -157.6875 L 171.363281 -165.730469 L 171.363281 -176.996094 L 172.167969 -181.019531 L 173.777344 -192.28125 L 173.777344 -198.71875 L 176.996094 -209.980469 L 176.996094 -216.417969 L 180.214844 -227.679688 L 181.824219 -237.335938 L 183.433594 -247.792969 L 185.84375 -258.253906 L 185.84375 -264.6875 L 188.257812 -270.320312 L 191.476562 -281.585938 L 195.5 -305.71875 L 197.914062 -313.765625 L 199.523438 -324.222656 L 199.523438 -329.855469 L 200.328125 -336.292969 L 201.132812 -341.921875 L 201.132812 -349.164062 L 203.546875 -356.40625 L 205.957031 -367.667969 L 206.761719 -371.691406 L 209.175781 -382.148438 L 211.589844 -391.804688 L 213.199219 -402.261719 L 214.003906 -407.894531 L 214.808594 -417.550781 L 215.613281 -423.179688 L 217.222656 -432.835938 L 218.832031 -437.664062 L 220.441406 -446.511719 L 224.460938 -467.429688 L 225.265625 -472.257812 L 225.265625 -477.886719 L 226.070312 -482.714844 L 226.070312 -489.152344 L 229.289062 -496.390625 L 230.898438 -507.65625 L 233.3125 -511.679688 L 233.3125 -518.917969 L 235.726562 -522.136719 L 234.921875 -526.964844 L 235.726562 -535.8125 L 237.335938 -538.226562 L 237.335938 -548.6875 L 238.140625 -553.515625 L 234.921875 -561.558594 L 226.070312 -563.972656 L 220.441406 -563.167969 L 177.800781 -563.167969 L 172.167969 -562.363281 L 160.90625 -562.363281 L 153.664062 -563.167969 L 141.597656 -562.363281 L 135.964844 -561.558594 L 131.136719 -558.339844 L 125.507812 -555.925781 L 119.875 -547.882812 L 119.070312 -542.25 L 117.460938 -537.421875 L 115.851562 -525.355469 L 112.632812 -516.503906 L 111.023438 -507.65625 L 110.21875 -498 L 108.609375 -493.175781 L 107.804688 -488.347656 L 105.394531 -477.886719 L 103.785156 -466.625 L 102.175781 -462.601562 L 101.371094 -452.144531 L 100.566406 -445.707031 L 101.371094 -440.074219 L 98.152344 -429.617188 L 97.347656 -423.984375 L 94.933594 -413.527344 L 94.128906 -408.699219 L 90.910156 -399.046875 L 91.714844 -393.414062 L 90.910156 -388.585938 L 89.300781 -377.324219 L 86.890625 -371.691406 L 86.890625 -360.425781 L 84.476562 -343.53125 L 80.453125 -332.269531 L 78.039062 -321.808594 L 76.429688 -312.15625 L 76.429688 -301.699219 L 73.210938 -295.261719 L 71.601562 -283.996094 L 71.601562 -278.367188 L 68.382812 -267.101562 L 68.382812 -255.839844 L 66.777344 -244.574219 L 65.972656 -239.75 L 65.167969 -234.117188 L 63.558594 -228.484375 L 63.558594 -223.660156 L 61.949219 -211.589844 L 56.316406 -193.890625 L 57.121094 -188.257812 L 55.511719 -182.628906 L 54.707031 -177.800781 L 53.097656 -172.167969 L 53.097656 -166.535156 L 51.488281 -156.882812 L 49.878906 -149.640625 L 47.46875 -142.402344 L 45.859375 -135.160156 L 43.445312 -126.3125 L 41.03125 -111.828125 L 41.835938 -107.003906 L 38.617188 -96.542969 L 37.8125 -90.910156 L 36.203125 -84.476562 L 35.398438 -78.84375 L 32.984375 -66.777344 L 32.179688 -60.339844 L 30.570312 -49.074219 L 28.964844 -43.445312 L 28.160156 -31.375 L 24.136719 -20.113281 L 24.941406 -8.046875 L 31.375 -2.414062 L 37.8125 -0.804688 L 44.25 -1.609375 L 49.878906 -0.804688 L 58.730469 0 L 64.363281 -0.804688 L 70.796875 -0.804688 L 82.0625 0.804688 L 105.394531 0.804688 Z M 111.023438 1.609375" transform="translate(15.028 850.925)"/></g></g></g><g fill="#FFD425"><g><g><path d="M 41.03125 1.609375 L 126.3125 1.609375 L 135.160156 -1.609375 L 137.574219 -9.65625 L 140.792969 -19.308594 L 143.207031 -33.789062 L 144.816406 -38.617188 L 144.816406 -49.074219 L 145.621094 -54.707031 L 148.03125 -65.167969 L 151.25 -88.496094 L 152.859375 -94.128906 L 153.664062 -98.957031 L 155.273438 -110.21875 L 158.492188 -126.3125 L 161.710938 -138.378906 L 163.320312 -149.640625 L 164.125 -154.46875 L 163.320312 -160.101562 L 164.929688 -165.730469 L 167.339844 -175.386719 L 165.730469 -181.019531 L 168.144531 -191.476562 L 169.753906 -196.304688 L 172.972656 -227.679688 L 178.605469 -266.296875 L 179.410156 -286.410156 L 181.019531 -300.089844 L 181.824219 -308.9375 L 182.628906 -325.027344 L 183.433594 -347.554688 L 185.84375 -347.554688 L 190.671875 -316.984375 L 195.5 -288.019531 L 197.914062 -265.492188 L 201.9375 -239.75 L 205.152344 -217.222656 L 206.761719 -201.9375 L 209.980469 -185.84375 L 209.980469 -173.777344 L 210.785156 -168.949219 L 213.199219 -157.6875 L 214.003906 -152.859375 L 216.417969 -141.597656 L 216.417969 -136.769531 L 218.832031 -124.703125 L 221.246094 -115.851562 L 222.050781 -103.785156 L 223.660156 -92.519531 L 224.460938 -87.691406 L 227.679688 -70.796875 L 228.484375 -65.972656 L 230.09375 -49.074219 L 230.898438 -44.25 L 231.703125 -34.59375 L 232.507812 -30.570312 L 236.53125 -19.308594 L 242.96875 -6.4375 L 249.402344 -0.804688 L 263.078125 -0.804688 L 273.539062 0 L 289.628906 0 L 294.457031 -0.804688 L 302.5 0 L 308.132812 -0.804688 L 323.417969 0 L 326.636719 0 L 335.488281 -1.609375 L 346.75 -2.414062 L 354.796875 -8.046875 L 362.035156 -17.699219 L 366.058594 -43.445312 L 368.472656 -53.902344 L 370.082031 -59.535156 L 370.082031 -64.363281 L 374.105469 -74.820312 L 374.105469 -87.691406 L 377.324219 -98.957031 L 379.734375 -105.394531 L 381.34375 -115.851562 L 382.148438 -126.3125 L 382.953125 -135.160156 L 386.171875 -144.816406 L 389.390625 -152.054688 L 391 -160.101562 L 392.609375 -171.363281 L 395.828125 -182.628906 L 395.828125 -187.453125 L 396.632812 -192.28125 L 397.4375 -197.914062 L 398.242188 -202.742188 L 399.046875 -209.980469 L 400.652344 -217.222656 L 403.066406 -228.484375 L 405.480469 -233.3125 L 405.480469 -243.769531 L 406.285156 -248.597656 L 407.089844 -254.230469 L 408.699219 -259.058594 L 409.503906 -264.6875 L 411.113281 -269.515625 L 410.308594 -276.757812 L 411.917969 -283.191406 L 413.527344 -294.457031 L 415.941406 -304.914062 L 417.550781 -310.546875 L 419.960938 -321.007812 L 421.570312 -327.441406 L 422.375 -333.074219 L 423.179688 -341.921875 L 425.59375 -349.164062 L 428.8125 -373.300781 L 430.421875 -378.933594 L 430.421875 -389.390625 L 432.03125 -395.023438 L 433.640625 -401.457031 L 436.054688 -408.699219 L 437.664062 -421.570312 L 440.878906 -434.445312 L 443.292969 -451.339844 L 444.902344 -457.773438 L 447.316406 -472.257812 L 449.730469 -481.105469 L 454.558594 -500.414062 L 456.167969 -511.679688 L 458.578125 -529.378906 L 457.773438 -535.8125 L 460.1875 -547.078125 L 460.1875 -553.515625 L 459.382812 -559.949219 L 454.558594 -562.363281 L 443.292969 -564.777344 L 432.03125 -563.972656 L 423.984375 -563.972656 L 405.480469 -564.777344 L 397.4375 -564.777344 L 391.804688 -563.972656 L 374.910156 -565.582031 L 359.625 -562.363281 L 356.40625 -559.949219 L 349.96875 -548.6875 L 346.75 -531.792969 L 344.335938 -518.917969 L 343.53125 -514.09375 L 343.53125 -506.851562 L 341.117188 -500.414062 L 339.511719 -494.785156 L 337.097656 -483.519531 L 336.292969 -477.082031 L 334.683594 -465.820312 L 333.074219 -460.992188 L 332.269531 -455.363281 L 329.855469 -444.902344 L 329.855469 -440.074219 L 327.441406 -425.59375 L 328.246094 -419.960938 L 323.417969 -410.308594 L 323.417969 -404.675781 L 322.613281 -395.023438 L 322.613281 -385.367188 L 319.398438 -374.910156 L 319.398438 -370.082031 L 317.789062 -358.820312 L 316.179688 -353.992188 L 315.375 -342.726562 L 314.570312 -336.292969 L 313.765625 -330.660156 L 312.960938 -325.832031 L 310.546875 -314.570312 L 310.546875 -287.214844 L 308.132812 -270.320312 L 305.71875 -231.703125 L 305.71875 -220.441406 L 304.109375 -201.132812 L 303.304688 -185.039062 L 300.894531 -185.039062 L 298.480469 -202.742188 L 296.066406 -224.460938 L 294.457031 -234.117188 L 292.847656 -239.75 L 292.847656 -245.378906 L 291.238281 -263.078125 L 288.019531 -281.585938 L 285.605469 -303.304688 L 283.996094 -309.742188 L 282.386719 -321.007812 L 281.585938 -333.878906 L 279.171875 -347.554688 L 277.5625 -361.230469 L 275.148438 -373.300781 L 274.34375 -382.148438 L 274.34375 -387.78125 L 271.929688 -396.632812 L 271.929688 -401.457031 L 269.515625 -411.917969 L 267.90625 -423.984375 L 267.101562 -429.617188 L 265.492188 -436.054688 L 262.277344 -452.144531 L 259.863281 -463.40625 L 257.449219 -477.082031 L 255.035156 -489.957031 L 251.816406 -509.265625 L 248.597656 -520.527344 L 247.792969 -529.378906 L 246.183594 -539.03125 L 242.96875 -547.078125 L 242.164062 -552.710938 L 237.335938 -559.949219 L 228.484375 -562.363281 L 217.222656 -562.363281 L 205.152344 -563.167969 L 195.5 -562.363281 L 180.214844 -563.167969 L 169.753906 -562.363281 L 162.515625 -562.363281 L 148.835938 -563.167969 L 137.574219 -562.363281 L 129.527344 -560.753906 L 124.703125 -551.90625 L 122.289062 -547.882812 L 120.679688 -543.054688 L 118.265625 -532.597656 L 118.265625 -526.160156 L 115.851562 -515.703125 L 114.242188 -506.046875 L 112.632812 -495.589844 L 111.828125 -489.957031 L 110.21875 -485.128906 L 109.414062 -479.496094 L 108.609375 -474.671875 L 107.804688 -469.039062 L 107.003906 -458.578125 L 105.394531 -451.339844 L 102.175781 -444.097656 L 102.175781 -438.464844 L 98.152344 -415.941406 L 96.542969 -411.113281 L 95.738281 -405.480469 L 95.738281 -395.828125 L 93.324219 -388.585938 L 90.910156 -379.734375 L 89.300781 -369.277344 L 87.691406 -363.644531 L 87.691406 -358.015625 L 85.28125 -352.382812 L 85.28125 -345.945312 L 82.867188 -339.511719 L 82.0625 -333.074219 L 82.0625 -321.808594 L 80.453125 -313.765625 L 78.84375 -307.328125 L 74.820312 -297.675781 L 74.015625 -289.628906 L 73.210938 -278.367188 L 72.40625 -272.734375 L 71.601562 -267.90625 L 67.582031 -258.253906 L 67.582031 -253.425781 L 66.777344 -248.597656 L 65.972656 -238.140625 L 64.363281 -233.3125 L 63.558594 -227.679688 L 61.949219 -218.027344 L 59.535156 -209.175781 L 57.925781 -201.9375 L 56.316406 -192.28125 L 53.097656 -179.410156 L 51.488281 -168.949219 L 52.292969 -163.320312 L 51.488281 -158.492188 L 49.074219 -148.835938 L 48.273438 -143.207031 L 47.46875 -133.550781 L 44.25 -127.917969 L 44.25 -117.460938 L 42.640625 -111.023438 L 42.640625 -105.394531 L 40.226562 -92.519531 L 38.617188 -85.28125 L 36.203125 -74.015625 L 34.59375 -69.992188 L 32.179688 -58.730469 L 31.375 -53.097656 L 28.160156 -41.835938 L 26.550781 -28.964844 L 26.550781 -16.089844 L 24.941406 -9.65625 L 28.964844 0 Z M 41.03125 1.609375" transform="translate(226.618 850.925)"/></g></g></g><g fill="#FFD425"><g><g><path d="M 131.941406 -600.175781 L 142.402344 -600.980469 L 164.929688 -600.175781 L 180.214844 -600.175781 L 189.0625 -603.394531 L 192.28125 -607.417969 L 202.742188 -613.050781 L 215.613281 -625.921875 L 226.070312 -633.964844 L 232.507812 -638.792969 L 242.96875 -648.449219 L 253.425781 -658.90625 L 261.472656 -664.539062 L 267.101562 -670.171875 L 273.539062 -675.800781 L 283.996094 -684.652344 L 289.628906 -690.285156 L 294.457031 -698.328125 L 297.675781 -702.351562 L 296.066406 -707.984375 L 292.042969 -709.59375 L 283.996094 -712.003906 L 204.351562 -712.003906 L 196.304688 -708.789062 L 193.890625 -707.179688 L 186.648438 -701.546875 L 173.777344 -683.847656 L 168.949219 -679.019531 L 163.320312 -671.777344 L 156.882812 -665.34375 L 152.054688 -661.320312 L 146.421875 -655.6875 L 141.597656 -650.058594 L 134.355469 -642.011719 L 126.3125 -633.964844 L 121.484375 -626.726562 L 118.265625 -622.703125 L 111.828125 -615.460938 L 106.199219 -609.832031 L 103.785156 -603.394531 L 111.023438 -602.589844 L 123.898438 -600.980469 Z M 111.023438 1.609375 L 131.941406 1.609375 L 140.792969 -0.804688 L 143.207031 -8.046875 L 144.011719 -14.480469 L 146.421875 -24.941406 L 148.03125 -36.203125 L 150.445312 -46.664062 L 153.664062 -65.972656 L 156.078125 -74.820312 L 156.078125 -80.453125 L 157.6875 -90.910156 L 159.296875 -102.175781 L 161.710938 -113.4375 L 161.710938 -119.875 L 164.929688 -130.332031 L 165.730469 -136.769531 L 168.144531 -148.835938 L 167.339844 -157.6875 L 171.363281 -165.730469 L 171.363281 -176.996094 L 172.167969 -181.019531 L 173.777344 -192.28125 L 173.777344 -198.71875 L 176.996094 -209.980469 L 176.996094 -216.417969 L 180.214844 -227.679688 L 181.824219 -237.335938 L 183.433594 -247.792969 L 185.84375 -258.253906 L 185.84375 -264.6875 L 188.257812 -270.320312 L 191.476562 -281.585938 L 195.5 -305.71875 L 197.914062 -313.765625 L 199.523438 -324.222656 L 199.523438 -329.855469 L 200.328125 -336.292969 L 201.132812 -341.921875 L 201.132812 -349.164062 L 203.546875 -356.40625 L 205.957031 -367.667969 L 206.761719 -371.691406 L 209.175781 -382.148438 L 211.589844 -391.804688 L 213.199219 -402.261719 L 214.003906 -407.894531 L 214.808594 -417.550781 L 215.613281 -423.179688 L 217.222656 -432.835938 L 218.832031 -437.664062 L 220.441406 -446.511719 L 224.460938 -467.429688 L 225.265625 -472.257812 L 225.265625 -477.886719 L 226.070312 -482.714844 L 226.070312 -489.152344 L 229.289062 -496.390625 L 230.898438 -507.65625 L 233.3125 -511.679688 L 233.3125 -518.917969 L 235.726562 -522.136719 L 234.921875 -526.964844 L 235.726562 -535.8125 L 237.335938 -538.226562 L 237.335938 -548.6875 L 238.140625 -553.515625 L 234.921875 -561.558594 L 226.070312 -563.972656 L 220.441406 -563.167969 L 177.800781 -563.167969 L 172.167969 -562.363281 L 160.90625 -562.363281 L 153.664062 -563.167969 L 141.597656 -562.363281 L 135.964844 -561.558594 L 131.136719 -558.339844 L 125.507812 -555.925781 L 119.875 -547.882812 L 119.070312 -542.25 L 117.460938 -537.421875 L 115.851562 -525.355469 L 112.632812 -516.503906 L 111.023438 -507.65625 L 110.21875 -498 L 108.609375 -493.175781 L 107.804688 -488.347656 L 105.394531 -477.886719 L 103.785156 -466.625 L 102.175781 -462.601562 L 101.371094 -452.144531 L 100.566406 -445.707031 L 101.371094 -440.074219 L 98.152344 -429.617188 L 97.347656 -423.984375 L 94.933594 -413.527344 L 94.128906 -408.699219 L 90.910156 -399.046875 L 91.714844 -393.414062 L 90.910156 -388.585938 L 89.300781 -377.324219 L 86.890625 -371.691406 L 86.890625 -360.425781 L 84.476562 -343.53125 L 80.453125 -332.269531 L 78.039062 -321.808594 L 76.429688 -312.15625 L 76.429688 -301.699219 L 73.210938 -295.261719 L 71.601562 -283.996094 L 71.601562 -278.367188 L 68.382812 -267.101562 L 68.382812 -255.839844 L 66.777344 -244.574219 L 65.972656 -239.75 L 65.167969 -234.117188 L 63.558594 -228.484375 L 63.558594 -223.660156 L 61.949219 -211.589844 L 56.316406 -193.890625 L 57.121094 -188.257812 L 55.511719 -182.628906 L 54.707031 -177.800781 L 53.097656 -172.167969 L 53.097656 -166.535156 L 51.488281 -156.882812 L 49.878906 -149.640625 L 47.46875 -142.402344 L 45.859375 -135.160156 L 43.445312 -126.3125 L 41.03125 -111.828125 L 41.835938 -107.003906 L 38.617188 -96.542969 L 37.8125 -90.910156 L 36.203125 -84.476562 L 35.398438 -78.84375 L 32.984375 -66.777344 L 32.179688 -60.339844 L 30.570312 -49.074219 L 28.964844 -43.445312 L 28.160156 -31.375 L 24.136719 -20.113281 L 24.941406 -8.046875 L 31.375 -2.414062 L 37.8125 -0.804688 L 44.25 -1.609375 L 49.878906 -0.804688 L 58.730469 0 L 64.363281 -0.804688 L 70.796875 -0.804688 L 82.0625 0.804688 L 105.394531 0.804688 Z M 111.023438 1.609375" transform="translate(660.257 850.925)"/></g></g></g><g fill="#FFD425"><g><g><path d="M 176.191406 9.65625 L 184.238281 8.046875 L 194.695312 7.242188 L 206.761719 7.242188 L 217.222656 4.828125 L 226.875 3.21875 L 236.53125 0.804688 L 257.449219 -4.023438 L 263.078125 -6.4375 L 275.953125 -14.480469 L 288.019531 -24.941406 L 300.089844 -39.421875 L 301.699219 -44.25 L 304.109375 -49.074219 L 308.132812 -53.902344 L 311.351562 -58.730469 L 313.765625 -64.363281 L 317.789062 -74.015625 L 322.613281 -86.890625 L 325.027344 -91.714844 L 326.636719 -97.347656 L 327.441406 -102.980469 L 329.855469 -112.632812 L 334.683594 -132.746094 L 336.292969 -137.574219 L 338.707031 -154.46875 L 339.511719 -157.6875 L 340.316406 -163.320312 L 341.921875 -167.339844 L 342.726562 -176.191406 L 344.335938 -186.648438 L 344.335938 -192.28125 L 345.945312 -197.109375 L 345.945312 -205.957031 L 342.726562 -211.589844 L 337.097656 -217.222656 L 327.441406 -218.027344 L 288.019531 -220.441406 L 271.125 -220.441406 L 250.207031 -221.246094 L 243.769531 -220.441406 L 238.140625 -214.003906 L 236.53125 -205.957031 L 232.507812 -195.5 L 231.703125 -189.867188 L 230.09375 -182.628906 L 227.679688 -170.558594 L 225.265625 -160.90625 L 224.460938 -156.882812 L 223.660156 -152.054688 L 220.441406 -141.597656 L 216.417969 -130.332031 L 209.980469 -115.851562 L 206.761719 -111.828125 L 195.5 -104.589844 L 183.433594 -104.589844 L 170.558594 -102.980469 L 158.492188 -107.003906 L 152.054688 -112.632812 L 148.835938 -124.703125 L 148.835938 -130.332031 L 148.03125 -135.160156 L 148.03125 -143.207031 L 148.835938 -154.46875 L 151.25 -165.730469 L 151.25 -172.167969 L 153.664062 -189.0625 L 152.859375 -194.695312 L 154.46875 -200.328125 L 155.273438 -205.957031 L 155.273438 -212.394531 L 156.078125 -218.027344 L 158.492188 -223.660156 L 158.492188 -240.554688 L 160.90625 -252.621094 L 162.515625 -259.058594 L 164.125 -269.515625 L 164.929688 -275.148438 L 168.144531 -288.019531 L 168.949219 -294.457031 L 175.386719 -326.636719 L 179.410156 -338.707031 L 181.019531 -349.96875 L 182.628906 -355.601562 L 183.433594 -360.425781 L 184.238281 -366.058594 L 186.648438 -373.300781 L 189.0625 -382.953125 L 191.476562 -395.023438 L 194.695312 -404.675781 L 194.695312 -409.503906 L 199.523438 -423.179688 L 203.546875 -433.640625 L 206.761719 -447.316406 L 209.175781 -452.949219 L 211.589844 -457.773438 L 218.832031 -466.625 L 227.679688 -469.84375 L 237.335938 -471.453125 L 246.183594 -471.453125 L 257.449219 -468.234375 L 266.296875 -463.40625 L 271.125 -448.925781 L 271.125 -436.859375 L 269.515625 -425.59375 L 268.710938 -415.136719 L 263.882812 -397.4375 L 262.277344 -386.171875 L 259.058594 -371.691406 L 257.449219 -366.058594 L 257.449219 -354.796875 L 263.078125 -345.945312 L 286.410156 -342.726562 L 337.097656 -341.921875 L 348.359375 -342.726562 L 358.015625 -343.53125 L 361.230469 -346.75 L 365.253906 -367.667969 L 366.863281 -374.105469 L 371.691406 -405.480469 L 373.300781 -418.355469 L 374.910156 -430.421875 L 376.519531 -436.859375 L 377.324219 -444.902344 L 377.324219 -462.601562 L 376.519531 -474.671875 L 375.714844 -481.910156 L 374.910156 -492.371094 L 374.105469 -502.023438 L 372.496094 -510.875 L 368.472656 -518.917969 L 366.863281 -524.550781 L 364.449219 -528.574219 L 360.425781 -535.8125 L 358.820312 -539.835938 L 349.96875 -547.882812 L 339.511719 -555.925781 L 328.246094 -559.949219 L 319.398438 -561.558594 L 316.179688 -563.972656 L 310.546875 -564.777344 L 304.914062 -566.386719 L 300.089844 -567.191406 L 288.824219 -568.800781 L 280.78125 -568.800781 L 273.539062 -571.214844 L 253.425781 -573.628906 L 240.554688 -573.628906 L 225.265625 -572.824219 L 213.199219 -572.824219 L 207.566406 -572.019531 L 197.109375 -569.605469 L 183.433594 -567.191406 L 166.535156 -559.949219 L 161.710938 -557.535156 L 151.25 -552.710938 L 146.421875 -548.6875 L 135.160156 -537.421875 L 128.722656 -529.378906 L 123.09375 -521.332031 L 117.460938 -516.503906 L 114.242188 -507.65625 L 109.414062 -496.390625 L 105.394531 -486.738281 L 100.566406 -473.0625 L 97.347656 -461.796875 L 92.519531 -445.707031 L 86.890625 -429.617188 L 84.476562 -419.15625 L 82.0625 -413.527344 L 81.257812 -407.894531 L 80.453125 -403.066406 L 78.84375 -397.4375 L 78.039062 -391.804688 L 75.625 -386.976562 L 74.820312 -378.933594 L 73.210938 -370.082031 L 71.601562 -364.449219 L 67.582031 -348.359375 L 67.582031 -337.097656 L 65.167969 -332.269531 L 65.167969 -327.441406 L 64.363281 -317.789062 L 61.949219 -309.742188 L 60.339844 -300.894531 L 57.925781 -292.042969 L 57.925781 -288.824219 L 57.121094 -286.410156 L 57.121094 -275.148438 L 53.902344 -270.320312 L 51.488281 -255.839844 L 52.292969 -251.816406 L 49.878906 -242.96875 L 48.273438 -236.53125 L 49.074219 -229.289062 L 45.859375 -218.027344 L 44.25 -201.132812 L 43.445312 -196.304688 L 43.445312 -190.671875 L 41.835938 -179.410156 L 41.03125 -168.144531 L 40.226562 -161.710938 L 39.421875 -144.816406 L 39.421875 -123.898438 L 38.617188 -118.265625 L 38.617188 -111.023438 L 39.421875 -104.589844 L 39.421875 -89.300781 L 41.03125 -83.671875 L 42.640625 -73.210938 L 44.25 -68.382812 L 46.664062 -57.925781 L 53.902344 -47.46875 L 59.535156 -36.203125 L 63.558594 -32.179688 L 66.777344 -28.160156 L 77.234375 -20.113281 L 82.0625 -16.894531 L 86.085938 -13.675781 L 94.128906 -8.851562 L 98.957031 -4.828125 L 108.609375 -1.609375 L 119.070312 2.414062 L 123.898438 3.21875 L 129.527344 4.828125 L 137.574219 5.632812 L 142.402344 6.4375 L 148.835938 7.242188 L 157.6875 8.046875 L 163.320312 8.851562 L 168.949219 8.851562 Z M 176.191406 9.65625" transform="translate(871.847 850.925)"/></g></g></g><g fill="#FFD425"><g><g><path d="M 111.023438 1.609375 L 131.941406 1.609375 L 140.792969 -0.804688 L 143.207031 -8.046875 L 144.011719 -14.480469 L 146.421875 -24.941406 L 148.03125 -36.203125 L 150.445312 -46.664062 L 153.664062 -65.972656 L 156.078125 -74.820312 L 156.078125 -80.453125 L 157.6875 -90.910156 L 159.296875 -102.175781 L 161.710938 -113.4375 L 161.710938 -119.875 L 164.929688 -130.332031 L 165.730469 -136.769531 L 168.144531 -148.835938 L 167.339844 -157.6875 L 171.363281 -165.730469 L 171.363281 -176.996094 L 172.167969 -181.019531 L 173.777344 -192.28125 L 173.777344 -198.71875 L 176.996094 -209.980469 L 176.996094 -216.417969 L 180.214844 -227.679688 L 181.824219 -237.335938 L 183.433594 -247.792969 L 185.84375 -258.253906 L 185.84375 -264.6875 L 188.257812 -270.320312 L 191.476562 -281.585938 L 195.5 -305.71875 L 197.914062 -313.765625 L 199.523438 -324.222656 L 199.523438 -329.855469 L 200.328125 -336.292969 L 201.132812 -341.921875 L 201.132812 -349.164062 L 203.546875 -356.40625 L 205.957031 -367.667969 L 206.761719 -371.691406 L 209.175781 -382.148438 L 211.589844 -391.804688 L 213.199219 -402.261719 L 214.003906 -407.894531 L 214.808594 -417.550781 L 215.613281 -423.179688 L 217.222656 -432.835938 L 218.832031 -437.664062 L 220.441406 -446.511719 L 224.460938 -467.429688 L 225.265625 -472.257812 L 225.265625 -477.886719 L 226.070312 -482.714844 L 226.070312 -489.152344 L 229.289062 -496.390625 L 230.898438 -507.65625 L 233.3125 -511.679688 L 233.3125 -518.917969 L 235.726562 -522.136719 L 234.921875 -526.964844 L 235.726562 -535.8125 L 237.335938 -538.226562 L 237.335938 -548.6875 L 238.140625 -553.515625 L 234.921875 -561.558594 L 226.070312 -563.972656 L 220.441406 -563.167969 L 177.800781 -563.167969 L 172.167969 -562.363281 L 160.90625 -562.363281 L 153.664062 -563.167969 L 141.597656 -562.363281 L 135.964844 -561.558594 L 131.136719 -558.339844 L 125.507812 -555.925781 L 119.875 -547.882812 L 119.070312 -542.25 L 117.460938 -537.421875 L 115.851562 -525.355469 L 112.632812 -516.503906 L 111.023438 -507.65625 L 110.21875 -498 L 108.609375 -493.175781 L 107.804688 -488.347656 L 105.394531 -477.886719 L 103.785156 -466.625 L 102.175781 -462.601562 L 101.371094 -452.144531 L 100.566406 -445.707031 L 101.371094 -440.074219 L 98.152344 -429.617188 L 97.347656 -423.984375 L 94.933594 -413.527344 L 94.128906 -408.699219 L 90.910156 -399.046875 L 91.714844 -393.414062 L 90.910156 -388.585938 L 89.300781 -377.324219 L 86.890625 -371.691406 L 86.890625 -360.425781 L 84.476562 -343.53125 L 80.453125 -332.269531 L 78.039062 -321.808594 L 76.429688 -312.15625 L 76.429688 -301.699219 L 73.210938 -295.261719 L 71.601562 -283.996094 L 71.601562 -278.367188 L 68.382812 -267.101562 L 68.382812 -255.839844 L 66.777344 -244.574219 L 65.972656 -239.75 L 65.167969 -234.117188 L 63.558594 -228.484375 L 63.558594 -223.660156 L 61.949219 -211.589844 L 56.316406 -193.890625 L 57.121094 -188.257812 L 55.511719 -182.628906 L 54.707031 -177.800781 L 53.097656 -172.167969 L 53.097656 -166.535156 L 51.488281 -156.882812 L 49.878906 -149.640625 L 47.46875 -142.402344 L 45.859375 -135.160156 L 43.445312 -126.3125 L 41.03125 -111.828125 L 41.835938 -107.003906 L 38.617188 -96.542969 L 37.8125 -90.910156 L 36.203125 -84.476562 L 35.398438 -78.84375 L 32.984375 -66.777344 L 32.179688 -60.339844 L 30.570312 -49.074219 L 28.964844 -43.445312 L 28.160156 -31.375 L 24.136719 -20.113281 L 24.941406 -8.046875 L 31.375 -2.414062 L 37.8125 -0.804688 L 44.25 -1.609375 L 49.878906 -0.804688 L 58.730469 0 L 64.363281 -0.804688 L 70.796875 -0.804688 L 82.0625 0.804688 L 105.394531 0.804688 Z M 111.023438 1.609375" transform="translate(1222.62 850.925)"/></g></g></g><g fill="#FFD425"><g><g><path d="M 194.695312 12.871094 L 212.394531 10.457031 L 221.246094 8.046875 L 226.875 7.242188 L 238.140625 4.828125 L 244.574219 3.21875 L 250.207031 2.414062 L 268.710938 -4.828125 L 271.929688 -7.242188 L 281.585938 -13.675781 L 291.238281 -20.917969 L 295.261719 -25.746094 L 300.089844 -29.765625 L 309.742188 -39.421875 L 311.351562 -44.25 L 315.375 -49.074219 L 318.59375 -53.902344 L 325.832031 -64.363281 L 329.855469 -69.992188 L 336.292969 -84.476562 L 341.921875 -95.738281 L 342.726562 -103.785156 L 346.75 -109.414062 L 349.164062 -118.265625 L 349.164062 -123.898438 L 351.578125 -133.550781 L 355.601562 -142.402344 L 356.40625 -151.25 L 358.820312 -156.078125 L 362.839844 -165.730469 L 362.035156 -170.558594 L 370.082031 -198.71875 L 372.496094 -203.546875 L 374.105469 -214.808594 L 375.714844 -220.441406 L 375.714844 -227.679688 L 378.128906 -242.164062 L 380.539062 -246.988281 L 382.953125 -257.449219 L 383.757812 -267.101562 L 386.171875 -277.5625 L 387.78125 -288.019531 L 391 -298.480469 L 390.195312 -308.132812 L 394.21875 -316.984375 L 393.414062 -325.027344 L 395.023438 -337.902344 L 396.632812 -343.53125 L 397.4375 -356.40625 L 398.242188 -368.472656 L 399.847656 -379.734375 L 400.652344 -384.5625 L 400.652344 -392.609375 L 399.847656 -398.242188 L 400.652344 -403.066406 L 402.261719 -408.699219 L 403.066406 -419.15625 L 403.066406 -424.789062 L 402.261719 -435.25 L 403.066406 -440.074219 L 403.871094 -450.535156 L 403.871094 -456.167969 L 403.066406 -462.601562 L 401.457031 -477.886719 L 399.046875 -489.957031 L 397.4375 -495.589844 L 395.828125 -500.414062 L 393.414062 -505.242188 L 388.585938 -515.703125 L 386.171875 -521.332031 L 382.148438 -526.160156 L 373.300781 -534.207031 L 364.449219 -541.445312 L 360.425781 -546.273438 L 353.992188 -550.296875 L 339.511719 -559.949219 L 327.441406 -565.582031 L 322.613281 -567.191406 L 316.179688 -567.996094 L 309.742188 -570.410156 L 296.871094 -572.019531 L 288.019531 -572.824219 L 283.191406 -573.628906 L 268.710938 -574.429688 L 259.058594 -573.628906 L 247.792969 -572.824219 L 233.3125 -570.410156 L 225.265625 -569.605469 L 213.199219 -566.386719 L 208.371094 -565.582031 L 196.304688 -562.363281 L 186.648438 -557.535156 L 176.996094 -551.90625 L 171.363281 -547.882812 L 164.929688 -545.46875 L 154.46875 -538.226562 L 143.207031 -526.160156 L 139.183594 -521.332031 L 133.550781 -517.308594 L 127.113281 -507.65625 L 120.679688 -497.195312 L 117.460938 -492.371094 L 116.65625 -486.738281 L 109.414062 -476.28125 L 106.199219 -470.648438 L 101.371094 -460.992188 L 97.347656 -449.730469 L 94.128906 -440.074219 L 91.714844 -434.445312 L 86.890625 -423.984375 L 85.28125 -413.527344 L 81.257812 -407.894531 L 78.039062 -387.78125 L 76.429688 -376.519531 L 75.625 -371.691406 L 73.210938 -366.058594 L 71.601562 -356.40625 L 71.601562 -345.140625 L 69.992188 -339.511719 L 65.167969 -331.464844 L 65.972656 -326.636719 L 64.363281 -321.007812 L 64.363281 -316.179688 L 62.753906 -310.546875 L 60.339844 -305.71875 L 60.339844 -300.089844 L 57.925781 -290.433594 L 57.925781 -279.976562 L 55.511719 -270.320312 L 53.097656 -255.839844 L 51.488281 -250.207031 L 49.878906 -239.75 L 51.488281 -235.726562 L 48.273438 -224.460938 L 48.273438 -218.832031 L 46.664062 -207.566406 L 46.664062 -201.132812 L 43.445312 -189.867188 L 41.835938 -172.167969 L 41.835938 -166.535156 L 42.640625 -160.101562 L 40.226562 -152.054688 L 40.226562 -136.769531 L 38.617188 -131.136719 L 41.03125 -115.046875 L 41.835938 -110.21875 L 42.640625 -98.957031 L 44.25 -94.128906 L 45.054688 -88.496094 L 46.664062 -83.671875 L 48.273438 -79.648438 L 49.074219 -74.820312 L 51.488281 -69.1875 L 51.488281 -64.363281 L 57.925781 -53.902344 L 61.949219 -48.273438 L 64.363281 -43.445312 L 68.382812 -39.421875 L 70.796875 -35.398438 L 82.0625 -22.527344 L 96.542969 -10.457031 L 107.804688 -3.21875 L 113.4375 0 L 125.507812 3.21875 L 131.941406 4.023438 L 150.445312 9.65625 L 157.6875 10.457031 L 163.320312 11.261719 L 173.777344 10.457031 Z M 188.257812 -96.542969 L 183.433594 -97.347656 L 176.996094 -98.957031 L 170.558594 -101.371094 L 166.535156 -105.394531 L 161.710938 -112.632812 L 160.101562 -115.851562 L 157.6875 -121.484375 L 157.6875 -144.011719 L 155.273438 -149.640625 L 158.492188 -157.6875 L 159.296875 -167.339844 L 156.882812 -172.972656 L 159.296875 -178.605469 L 159.296875 -184.238281 L 161.710938 -196.304688 L 161.710938 -202.742188 L 163.320312 -208.371094 L 163.320312 -214.808594 L 164.929688 -222.050781 L 164.125 -225.265625 L 165.730469 -230.898438 L 164.929688 -237.335938 L 168.949219 -248.597656 L 171.363281 -254.230469 L 170.558594 -260.667969 L 171.363281 -266.296875 L 171.363281 -271.929688 L 172.972656 -283.191406 L 174.582031 -288.824219 L 177.800781 -301.699219 L 180.214844 -308.132812 L 181.824219 -320.203125 L 183.433594 -325.832031 L 184.238281 -331.464844 L 186.648438 -344.335938 L 189.0625 -355.601562 L 192.28125 -366.863281 L 193.085938 -371.691406 L 195.5 -382.953125 L 196.304688 -389.390625 L 196.304688 -391 L 201.132812 -407.894531 L 202.742188 -414.332031 L 204.351562 -419.960938 L 209.175781 -430.421875 L 212.394531 -436.054688 L 215.613281 -445.707031 L 221.246094 -454.558594 L 229.289062 -461.796875 L 242.164062 -466.625 L 248.597656 -468.234375 L 263.882812 -469.039062 L 276.757812 -463.40625 L 282.386719 -456.167969 L 285.605469 -451.339844 L 288.824219 -435.25 L 287.214844 -423.984375 L 286.410156 -413.527344 L 284.800781 -399.046875 L 284.800781 -388.585938 L 283.191406 -381.34375 L 280.78125 -370.082031 L 279.171875 -363.644531 L 278.367188 -353.1875 L 279.171875 -347.554688 L 277.5625 -341.921875 L 275.953125 -335.488281 L 274.34375 -325.832031 L 271.125 -313.765625 L 271.929688 -300.089844 L 269.515625 -295.261719 L 267.90625 -279.976562 L 265.492188 -273.539062 L 263.078125 -266.296875 L 261.472656 -247.792969 L 259.058594 -235.726562 L 256.644531 -228.484375 L 257.449219 -226.070312 L 257.449219 -219.636719 L 255.035156 -214.808594 L 254.230469 -208.371094 L 251.816406 -197.914062 L 249.402344 -192.28125 L 248.597656 -181.019531 L 246.183594 -174.582031 L 244.574219 -163.320312 L 242.96875 -157.6875 L 240.554688 -145.621094 L 240.554688 -139.183594 L 238.945312 -133.550781 L 234.117188 -122.289062 L 228.484375 -111.023438 L 217.222656 -102.980469 L 209.980469 -99.761719 L 198.71875 -96.542969 Z M 188.257812 -96.542969" transform="translate(1434.21 850.925)"/></g></g></g></svg>